<mxfile host="app.diagrams.net" modified="2024-01-20T06:03:02.024Z" agent="Mozilla/5.0 (Windows NT 6.1; Win64; x64) AppleWebKit/537.36 (KHTML, like Gecko) Chrome/109.0.0.0 Safari/537.36" version="22.1.21" etag="A_4GKTaOEYNZZncQ78KL" type="github">
  <diagram name="Страница — 1" id="nTOJG4U7TyEazY0ghbzv">
    <mxGraphModel>
      <root>
        <mxCell id="0" />
        <mxCell id="1" parent="0" />
      </root>
    </mxGraphModel>
  </diagram>
</mxfile>
